<svg width="40" height="40" viewBox="0 0 40 40" fill="none" xmlns="http://www.w3.org/2000/svg">
<path d="M6.66666 33.3332C5.74999 33.3332 4.96527 33.0068 4.31249 32.354C3.65972 31.7012 3.33333 30.9165 3.33333 29.9998V9.99984C3.33333 9.08317 3.65972 8.29845 4.31249 7.64567C4.96527 6.99289 5.74999 6.6665 6.66666 6.6665H33.3333C34.25 6.6665 35.0347 6.99289 35.6875 7.64567C36.3403 8.29845 36.6667 9.08317 36.6667 9.99984V29.9998C36.6667 30.9165 36.3403 31.7012 35.6875 32.354C35.0347 33.0068 34.25 33.3332 33.3333 33.3332H6.66666ZM20 21.6665L6.66666 13.3332V29.9998H33.3333V13.3332L20 21.6665ZM20 18.3332L33.3333 9.99984H6.66666L20 18.3332ZM6.66666 13.3332V9.99984V29.9998V13.3332Z" fill="#5FD93D"/>
</svg>
