<svg width="23" height="23" viewBox="0 0 23 23" fill="none" xmlns="http://www.w3.org/2000/svg">
<path d="M23 11.5L22.9281 16.3444C22.9137 18.0837 22.2094 19.7512 20.9731 20.9731C19.7369 22.2094 18.0837 22.8994 16.3444 22.9281L11.5 23H11.4856L6.65563 22.9281C4.91625 22.9137 3.24875 22.2094 2.02688 20.9731C0.790625 19.7512 0.100625 18.0837 0.071875 16.3444L0 11.5L0.071875 6.65563C0.08625 4.91625 0.790625 3.24875 2.02688 2.02688C3.24875 0.790625 4.91625 0.100625 6.65563 0.071875L11.5 0H11.5144L16.3444 0.071875C18.0837 0.08625 19.7512 0.790625 20.9731 2.02688C22.2094 3.26312 22.8994 4.91625 22.9281 6.65563L23 11.5ZM20.8581 11.5L20.7862 6.69875C20.7862 5.52 20.2975 4.38438 19.4638 3.55063C18.63 2.71688 17.4944 2.2425 16.3156 2.22812L11.5 2.15625L6.68438 2.22812C5.50563 2.22812 4.37 2.71688 3.53625 3.55063C2.7025 4.38438 2.22812 5.52 2.21375 6.69875L2.14188 11.5L2.21375 16.3156C2.21375 17.4944 2.7025 18.63 3.53625 19.4638C4.37 20.2975 5.50563 20.7719 6.68438 20.7862L11.5 20.8581L16.3156 20.7862C17.4944 20.7862 18.63 20.2975 19.4638 19.4638C20.2975 18.63 20.7719 17.4944 20.7862 16.3156L20.8581 11.5Z" fill="white"/>
<path d="M14.1019 9.3725H12.2044V8.12187C12.2044 7.6475 12.5206 7.54688 12.7362 7.54688H14.0875V5.49125H12.2331C10.1775 5.49125 9.7175 7.02938 9.7175 8.00688V9.38688H8.52437V11.5144H9.7175V17.5231H12.2188V11.5144H13.9006L14.1162 9.38688L14.1019 9.3725Z" fill="white"/>
</svg>
