<svg width="23" height="23" viewBox="0 0 23 23" fill="none" xmlns="http://www.w3.org/2000/svg">
<path d="M18.7738 5.49125C18.7738 5.66375 18.745 5.83625 18.6731 5.99438C18.6012 6.1525 18.515 6.29625 18.3856 6.42562C18.2563 6.555 18.1125 6.64125 17.9544 6.71313C17.7962 6.785 17.6238 6.81375 17.4513 6.81375C17.2788 6.81375 17.1063 6.785 16.9481 6.71313C16.79 6.64125 16.6462 6.555 16.5169 6.42562C16.3875 6.29625 16.3013 6.1525 16.2294 5.99438C16.1575 5.83625 16.1287 5.66375 16.1287 5.49125C16.1287 5.13188 16.2725 4.80125 16.5169 4.55688C16.7612 4.3125 17.1063 4.16875 17.4513 4.16875C17.7963 4.16875 18.1413 4.3125 18.3856 4.55688C18.63 4.80125 18.7738 5.14625 18.7738 5.49125ZM23 11.5L22.9281 16.3444C22.9137 18.0837 22.2094 19.7512 20.9731 20.9731C19.7369 22.2094 18.0837 22.8994 16.3444 22.9281L11.5 23H11.4856L6.65563 22.9281C4.91625 22.9137 3.24875 22.2094 2.02688 20.9731C0.790625 19.7512 0.100625 18.0837 0.071875 16.3444L0 11.5L0.071875 6.65563C0.08625 4.91625 0.790625 3.24875 2.02688 2.02688C3.24875 0.790625 4.91625 0.100625 6.65563 0.071875L11.5 0H11.5144L16.3444 0.071875C18.0837 0.08625 19.7512 0.790625 20.9731 2.02688C22.2094 3.26312 22.8994 4.91625 22.9281 6.65563L23 11.5ZM20.8581 11.5L20.7862 6.69875C20.7862 5.52 20.2975 4.38438 19.4638 3.55063C18.63 2.71688 17.4944 2.2425 16.3156 2.22812L11.5 2.15625L6.68438 2.22812C5.50563 2.22812 4.37 2.71688 3.53625 3.55063C2.7025 4.38438 2.22812 5.52 2.21375 6.69875L2.14188 11.5L2.21375 16.3156C2.21375 17.4944 2.7025 18.63 3.53625 19.4638C4.37 20.2975 5.50563 20.7719 6.68438 20.7862L11.5 20.8581L16.3156 20.7862C17.4944 20.7862 18.63 20.2975 19.4638 19.4638C20.2975 18.63 20.7719 17.4944 20.7862 16.3156L20.8581 11.5ZM17.4081 11.5C17.4081 13.0669 16.79 14.5619 15.6831 15.6687C14.5763 16.7756 13.0669 17.3938 11.5144 17.3938C9.96187 17.3938 8.4525 16.7756 7.34563 15.6687C6.23875 14.5619 5.62063 13.0525 5.62063 11.5C5.62063 9.9475 6.23875 8.43812 7.34563 7.33125C8.4525 6.22437 9.96187 5.60625 11.5144 5.60625C13.0669 5.60625 14.5763 6.22437 15.6831 7.33125C16.79 8.43812 17.4081 9.9475 17.4081 11.5ZM15.2662 11.5C15.2662 10.5081 14.8638 9.545 14.1594 8.84062C13.455 8.13625 12.4919 7.73375 11.5 7.73375C10.5081 7.73375 9.545 8.13625 8.84062 8.84062C8.13625 9.545 7.73375 10.5081 7.73375 11.5C7.73375 12.4919 8.13625 13.455 8.84062 14.1594C9.545 14.8638 10.5081 15.2662 11.5 15.2662C12.4919 15.2662 13.455 14.8638 14.1594 14.1594C14.8638 13.455 15.2662 12.4919 15.2662 11.5Z" fill="white"/>
</svg>
