<svg width="92" height="52" viewBox="0 0 92 52" fill="none" xmlns="http://www.w3.org/2000/svg">
<path d="M36.5004 38.7658H31.2526V43.9893H36.5004V38.7658Z" fill="white"/>
<path d="M29.6403 38.7658H24.3925V43.9893H29.6403V38.7658Z" fill="white"/>
<path d="M36.5004 45.4947H31.2526V50.7182H36.5004V45.4947Z" fill="white"/>
<path d="M29.6403 45.4947H24.3925V50.7182H29.6403V45.4947Z" fill="white"/>
<path d="M63.2828 19.2224L56.3015 26.1729L43.9711 13.8995L6.9799 50.7196L0 43.772L43.9725 0L63.2828 19.2224Z" fill="white"/>
<path d="M22.1168 15.1123H12.2405V31.4617H22.1168V15.1123Z" fill="white"/>
<path d="M68.6362 24.5496L66.6957 26.4739L68.6333 24.5453L68.6362 24.5496Z" fill="#5FD93D"/>
<path d="M91.9857 15.5682L75.7987 31.679L68.8159 38.6294L56.2829 51.1087L36.9427 31.7429L44.0096 24.5837L56.3015 36.8187L66.6957 26.4739L68.6362 24.5496L84.9216 8.41184L85.2783 8.77399L86.5339 10.0465L91.9857 15.5682Z" fill="#5FD93D"/>
<path d="M66.6957 26.4739L56.3015 36.8187L56.2787 36.7959L66.6957 26.4739Z" fill="#5FD93D"/>
</svg>
