<svg width="548" height="484" viewBox="0 0 548 484" fill="none" xmlns="http://www.w3.org/2000/svg">
<path d="M547.902 362.538L546.013 358.702C546.013 358.702 545.921 358.563 545.874 358.563L541.45 354.542L539.791 347.933C539.791 347.933 539.653 347.702 539.561 347.656L534.169 344.467L537.856 336.194C537.856 336.194 537.856 335.685 537.579 335.547L530.897 332.681L525.689 328.568L526.288 325.61L529.33 322.097L529.422 322.004L533.017 313.778C533.017 313.778 533.063 313.593 533.063 313.454L531.634 307.446C531.634 307.446 531.588 307.353 531.542 307.261L528.27 302.593L529.468 292.656C529.468 292.656 529.468 292.425 529.376 292.332L527.21 289.652C527.21 289.652 526.841 289.42 526.611 289.513L525.136 290.16L522.878 289.236L524.399 285.584L525.136 282.857C525.136 282.719 525.136 282.534 525.044 282.395L522.002 278.929L521.541 275.185C521.541 275.185 521.495 275.185 521.495 275.093L520.067 271.488C520.067 271.488 519.836 271.164 519.652 271.164L514.721 270.933L513.154 269.824C513.154 269.824 512.923 269.685 512.785 269.731L507.209 270.61L504.49 262.013L506.057 258.454L512.278 252.908L519.007 254.757C519.007 254.757 519.329 254.757 519.422 254.664L525.689 249.626L527.579 248.194C527.579 248.194 527.855 247.778 527.717 247.547L525.827 243.71C525.827 243.71 525.689 243.572 525.643 243.525L515.781 237.471C515.781 237.471 515.643 237.425 515.55 237.425L510.297 236.916C510.297 236.916 510.112 236.916 510.066 236.962L505.688 238.811L498.499 234.282L499.144 224.345L505.965 223.42C505.965 223.42 506.103 223.42 506.149 223.374L510.942 220.462C510.942 220.462 511.126 220.324 511.172 220.231L513.338 214.223C513.338 214.223 513.384 213.992 513.338 213.899L511.403 207.614C511.403 207.614 511.218 207.29 510.988 207.29L502.37 206.32H502.278L488.13 207.521L484.258 201.513L480.203 187.971L480.664 182.009L486.24 177.803C486.24 177.803 486.378 177.71 486.378 177.618L489.512 171.61C489.512 171.61 489.558 171.101 489.328 170.962L479.373 164.769L478.682 163.383L483.291 160.933C483.291 160.933 483.567 160.702 483.567 160.517V158.021L485.641 154.509C485.641 154.509 485.733 154 485.503 153.862L482.83 152.059V150.719L488.544 148.177C488.821 148.084 488.913 147.807 488.821 147.53L485.595 140.874L487.484 138.933C487.761 138.656 487.623 138.194 487.3 138.101L479.189 136.021L478.82 134.034L483.291 131.538C483.613 131.353 483.659 130.891 483.337 130.706L479.327 128.026L482.323 119.475C482.323 119.475 482.369 119.336 482.369 119.29L482.139 105.563C482.139 105.563 482.092 105.378 482.046 105.286L476.885 96.9667L483.89 95.4415C484.305 95.349 484.443 94.7944 484.074 94.5633L476.562 89.7566L483.936 80.5591C483.936 80.5591 484.028 80.4205 484.028 80.3743L485.641 73.5801L492.922 70.0675C492.922 70.0675 493.199 69.744 493.153 69.5129L491.494 62.6726L492.185 59.8995C492.185 59.8995 492.231 59.7146 492.185 59.6222L490.25 53.3364C490.25 53.3364 489.927 52.9667 489.697 53.0129L484.858 54.2146C484.858 54.2146 484.535 54.4457 484.535 54.6306L483.567 60.5465L482.369 62.5339L480.802 62.0255L479.189 57.4499C479.189 57.4499 479.097 57.265 479.051 57.2188L474.719 53.8448C474.719 53.8448 474.488 53.7062 474.35 53.7524L470.018 54.2146C470.018 54.2146 469.742 54.3533 469.649 54.4919L466.654 60.4541L461.216 60.223C461.216 60.223 460.847 60.3154 460.755 60.5003L459.096 63.6432L457.713 66.4163L454.856 68.6348L448.819 67.0171C448.819 67.0171 448.588 66.9709 448.496 67.0633L443.335 69.6516L436.007 69.1432L430.2 68.9121C430.2 68.9121 429.832 69.0045 429.74 69.1894L427.389 74.181L425.961 75.6138L418.08 73.2566C418.08 73.2566 417.757 73.2566 417.619 73.3491L413.425 76.6768L408.218 77.6012C408.218 77.6012 407.895 77.786 407.849 77.9247L406.236 83.0549L402.918 85.1348L399.83 81.16C399.83 81.16 399.738 81.1138 399.738 81.0675L396.604 78.6642C396.604 78.6642 396.374 78.5255 396.236 78.5717L393.563 79.0339C393.563 79.0339 393.424 79.0801 393.378 79.1726L390.936 81.0675C390.936 81.0675 390.844 81.16 390.844 81.2524L389.599 83.6558V83.7482L388.678 86.7062L381.12 91.8827C381.12 91.8827 381.074 91.9289 381.074 91.9751L379.138 93.8701C379.138 93.8701 379 94.1474 379 94.286L379.23 97.66L380.06 101.034L377.986 101.219C377.986 101.219 377.894 101.219 377.848 101.265L375.175 102.467C375.175 102.467 374.99 102.605 374.944 102.744L373.608 106.072L368.861 106.534C368.584 106.534 368.4 106.765 368.4 107.042L368.631 110.416L363.054 111.063L360.566 109.03C360.566 109.03 360.289 108.891 360.105 108.937L357.708 109.677C357.708 109.677 357.524 109.769 357.478 109.815L355.542 112.034L352.915 111.341C352.915 111.341 352.685 111.341 352.593 111.341L347.063 113.744C347.063 113.744 346.832 113.975 346.786 114.114L346.371 116.748L344.159 117.673L341.717 112.311C341.717 112.311 341.348 111.988 341.118 112.034L337.016 113.513C337.016 113.513 336.74 113.652 336.693 113.79L335.818 116.656L330.472 117.765L327.062 116.378L321.531 113.744C321.531 113.744 321.071 113.698 320.932 113.929L319.918 115.362L317.568 114.899H317.43L307.752 115.824L306.646 110.74C306.6 110.509 306.415 110.324 306.185 110.324L301.116 110.093L298.535 106.626L299.41 104.315L303.189 99.786C303.189 99.786 303.282 99.139 303.005 99.0465L297.567 96.9205L294.341 93.4541L293.65 91.3743C293.65 91.3743 293.512 91.1432 293.373 91.0969L289.041 89.202L294.479 84.4415C294.71 84.2104 294.71 83.8406 294.433 83.6558L290.193 80.744L291.484 78.0171C291.484 78.0171 291.484 77.5549 291.299 77.4163L287.797 74.828L286.184 71.3154C286.184 71.3154 286 71.0843 285.861 71.0843L282.497 70.1138C282.497 70.1138 282.405 70.0675 282.313 70.0675L279.041 70.4835V69.2818L281.575 65.307C281.575 65.307 281.668 64.9373 281.575 64.7986L280.654 63.0885C280.654 63.0885 280.562 62.9961 280.516 62.9499L278.672 61.5171L279.502 60.0381L282.036 60.6852H282.267L286.092 59.7146C286.092 59.7146 286.276 59.6222 286.322 59.5759L288.765 56.8953C288.765 56.8953 288.903 56.4793 288.765 56.2944L285.954 52.7356L285.032 48.7608C285.032 48.7608 284.986 48.6684 284.94 48.6222L276.783 35.1264C276.783 35.1264 276.69 34.9877 276.598 34.9415L272.451 32.8617L271.345 27.8701L273.234 17.3785C273.326 17.0087 272.958 16.6852 272.589 16.8238L270.93 17.4709L266.828 13.8196C266.828 13.8196 266.69 13.681 266.598 13.681L263.602 13.2188L256.966 7.76502C256.966 7.76502 256.828 7.67259 256.736 7.67259L254.8 7.39528C254.8 7.39528 254.569 7.39528 254.523 7.48771L250.191 9.89108C250.191 9.89108 250.145 9.89108 250.099 9.93729L247.887 11.6936L241.113 10.307H240.882L236.458 11.7398L231.25 10.2608L232.31 8.64318C232.31 8.64318 232.402 8.22721 232.264 8.08855L227.702 2.54234C227.702 2.54234 227.425 2.31124 227.241 2.35746L223.416 3.09696C223.416 3.09696 223.278 3.09696 223.232 3.14318L218.439 6.10116L209.314 0.231412C209.314 0.231412 209.176 0.185194 209.083 0.185194L204.06 -0.0458984C204.06 -0.0458984 203.784 0.000320043 203.645 0.092757L198.622 5.63897C198.622 5.63897 198.438 6.00872 198.53 6.14738L202.77 15.2986L196.133 14.8827H195.995L187.562 16.8238C187.562 16.8238 187.377 16.8701 187.331 16.9625L185.672 18.6264C185.672 18.6264 185.488 18.9037 185.534 19.0886L186.64 24.1726L176.501 26.4835C176.501 26.4835 176.132 26.6684 176.132 26.8995L175.902 30.2734L174.98 30.9205L173.552 29.7188C173.552 29.7188 173.321 29.5801 173.137 29.5801L168.067 30.7356L164.381 28.2398C164.381 28.2398 164.242 28.1474 164.15 28.1474L154.749 27.9163L145.255 28.1474L142.26 26.5297C142.26 26.5297 141.753 26.4835 141.615 26.6684L139.264 30.4583L134.287 33.7398C134.287 33.7398 134.103 33.9709 134.057 34.1558L133.826 38.0381L131.015 40.4415L127.005 40.2104L125.439 39.286C125.439 39.286 125.07 39.1936 124.886 39.3322L121.429 41.8743L112.35 40.9037L102.811 36.6054C102.811 36.6054 102.488 36.5591 102.35 36.6516L99.2161 38.5928C99.2161 38.5928 99.1239 38.639 99.0778 38.7314L96.2205 42.9835L92.9485 45.3407C92.9485 45.3407 92.718 45.5717 92.718 45.7566L92.9485 55.3238L87.2339 54.9079C87.2339 54.9079 86.773 55.0465 86.7269 55.2776L86.2661 58.1894C86.22 58.4205 86.3122 58.6054 86.4965 58.6978L92.2111 61.6558L91.059 68.5423V68.7272L91.4737 71.3617L83.6853 72.4709L77.3716 68.9121C77.3716 68.9121 76.8186 68.9121 76.6804 69.0969L73.5926 74.3659L71.7031 76.4919C71.7031 76.4919 71.5188 76.9079 71.6571 77.0928L72.8553 79.0339C72.8553 79.0339 72.9474 79.1264 72.9935 79.1726L74.9291 80.4205L73.27 81.2062L73.1318 81.3448L69.7676 84.9499C69.7676 84.9499 69.7676 85.0423 69.6754 85.1348L68.0624 90.6348L64.9747 91.2818C64.9747 91.2818 64.7443 91.4205 64.6521 91.5591L63.6382 93.4079L60.5966 92.9919C60.5966 92.9919 60.4123 92.9919 60.3201 93.0381L55.0203 95.4415C54.6977 95.5801 54.6516 96.0423 54.9742 96.2734L59.7671 99.6474H59.8131L70.4128 105.24C70.4128 105.24 70.4435 105.24 70.5049 105.24L81.1967 107.689L76.3117 112.589C76.3117 112.589 76.1734 112.773 76.1734 112.912L75.9891 114.853L75.2517 114.252C75.2517 114.252 74.883 114.114 74.6987 114.206L69.9519 116.841L64.0069 119.244L58.2462 120.677C57.9697 120.723 57.7854 121.047 57.9236 121.324L59.3523 124.467C59.3523 124.467 59.5827 124.744 59.721 124.744L63.6382 125.483L60.5044 127.748C60.5044 127.748 60.274 128.026 60.274 128.257L61.4261 133.433L56.3107 136.807L43.9137 137.269C43.6372 137.269 43.4529 137.547 43.4529 137.824L43.6833 141.429L43.9137 145.357L40.5034 146.328L39.9043 142.538L40.8721 141.752C41.1486 141.568 41.1025 141.105 40.7799 140.967L39.3513 140.227C39.3513 140.227 38.8443 140.181 38.7061 140.412L36.3097 144.526C36.3097 144.526 36.2636 144.618 36.2636 144.71L35.8027 147.992L31.7472 154.647C31.7472 154.647 31.655 154.832 31.7472 154.925L31.9776 157.42L29.1664 161.349C28.9821 161.626 29.1204 161.996 29.3969 162.089L33.268 163.475L34.0054 165.231L30.5951 166.849L29.3969 165.832C29.3969 165.832 29.1664 165.74 29.0743 165.74L25.7101 165.971H25.5718L17.4147 168.652C17.4147 168.652 17.2304 168.744 17.1382 168.836L15.2487 171.471C15.2487 171.471 15.2026 171.563 15.1565 171.61L14.1887 174.752L13.4053 177.11L12.2071 176.601C11.8384 176.462 11.4236 176.832 11.5619 177.248L12.6679 180.345L10.4558 183.257L6.58466 188.11C6.58466 188.11 6.44641 188.387 6.49249 188.525L7.92114 193.656L6.26207 197.862C6.26207 197.862 6.26207 198.231 6.40032 198.37L7.96722 199.941L8.15156 203.593L1.65354 204.055C1.65354 204.055 1.33094 204.194 1.23877 204.332L0.040555 207.013C-0.0977008 207.336 0.132726 207.66 0.501408 207.66H2.7135L7.64462 211.681C7.64462 211.681 7.78288 211.773 7.87505 211.773L12.9444 212.282C12.9444 212.282 13.0366 212.282 13.1288 212.236L17.6912 211.034C17.6912 211.034 17.8756 210.941 17.9216 210.849L19.5346 208.815L23.0371 207.614L22.8528 216.349V218.983C22.8528 219.307 23.1293 219.538 23.4058 219.492L25.0188 219.122L25.4796 226.471L25.2492 230.307L19.719 233.542C19.719 233.542 19.5807 233.635 19.5346 233.681L16.9078 238.025C16.9078 238.025 16.8156 238.441 16.9538 238.626L20.0876 242.231C20.0876 242.231 20.2259 242.37 20.3642 242.37L21.7928 242.647C21.7928 242.647 21.9771 242.647 22.0693 242.601L25.9405 240.891C25.9405 240.891 26.217 240.66 26.217 240.475V237.147L28.5673 236.177L32.8993 238.95C32.8993 238.95 33.1759 239.042 33.268 238.95L36.3097 238.257L43.0842 239.643L47.831 243.294L46.8632 254.618C46.8632 254.618 46.8632 254.757 46.9093 254.849L54.1447 269.778C54.1447 269.778 54.329 270.009 54.4673 270.055L62.3939 271.996C62.3939 271.996 62.6704 271.996 62.7626 271.904L65.2512 270.332L66.4033 270.517L74.7448 275.786C74.9752 275.925 75.3439 275.832 75.4361 275.555L77.2795 271.257L82.948 278.698L83.8697 284.383L77.6021 292.286L73.9152 293.21C73.9152 293.21 73.6848 293.303 73.6387 293.441L71.058 297.37L66.4033 298.988C66.0807 299.126 65.9886 299.635 66.2651 299.866L70.7814 303.425L71.9336 305.504C71.9336 305.504 72.164 305.736 72.3023 305.736L75.4361 305.967L76.5421 307.446C76.5421 307.446 76.9108 307.723 77.0951 307.631L83.6853 305.042L87.4643 306.152L91.9807 311.374L89.6764 317.383C89.6764 317.383 89.6303 317.66 89.6764 317.799L92.0267 322.097L92.6719 324.223L89.7225 328.336C89.7225 328.336 89.5842 328.614 89.6303 328.752L90.552 332.08L90.3216 335.131C90.3216 335.131 90.3677 335.362 90.4138 335.454L93.0867 338.828C93.0867 338.828 93.225 338.967 93.3171 339.013L99.2621 340.677L103.318 343.357L103.778 354.912C103.778 354.912 103.825 355.051 103.825 355.143L109.816 367.114L110.507 374.231C110.507 374.231 110.553 374.37 110.599 374.416L116.36 385.046C116.36 385.046 116.59 385.278 116.775 385.278H120.692L123.411 387.82C123.411 387.82 123.595 387.912 123.687 387.958L126.591 388.189C126.591 388.189 126.775 388.143 126.867 388.097L130.462 385.925V389.992L131.43 393.689L128.803 401.5C128.711 401.778 128.895 402.101 129.171 402.147L143.688 405.244L147.928 409.034C147.928 409.034 148.113 409.126 148.205 409.173L151.108 409.404C151.108 409.404 151.431 409.357 151.523 409.219L155.993 403.303L162.86 400.761L165.348 402.194L166.27 412.315C166.27 412.315 166.316 412.454 166.316 412.5L169.127 418.324L167.284 423.916C167.284 423.916 167.238 424.101 167.238 424.194L168.897 432.513L166.777 440.601C166.777 440.601 166.777 440.971 166.915 441.063L172.538 446.24L172.768 448.92L167.975 451.878C167.975 451.878 167.791 452.017 167.745 452.109L164.657 459.551L161.569 464.08C161.569 464.08 161.523 464.173 161.477 464.219L159.588 471.937C159.588 471.937 159.542 472.168 159.588 472.261L161.016 475.404C161.016 475.404 161.201 475.589 161.293 475.635L167.054 478.038C167.054 478.038 167.33 478.084 167.422 478.038L171.109 476.42L179.819 479.286H180.05L185.119 478.593C185.119 478.593 185.257 478.546 185.349 478.454L192.769 472.677C192.769 472.677 192.907 472.538 192.953 472.446L194.797 466.391L200.465 463.895L207.24 466.021H207.378L212.309 466.252L218.024 469.719L218.439 471.937C218.439 471.937 218.485 471.983 218.485 472.03L220.651 476.143C220.651 476.143 220.743 476.282 220.835 476.328L233.324 483.815C233.324 483.815 233.509 483.862 233.601 483.862L237.472 483.631C237.748 483.631 237.933 483.399 237.933 483.122L237.426 475.727L240.053 467.639C240.053 467.639 240.053 467.547 240.099 467.547L241.02 457.794L246.505 449.937C246.505 449.937 246.551 449.799 246.551 449.706L247.749 439.215L251.297 434.824L253.141 437.828C253.141 437.828 253.556 438.152 253.786 438.013L256.689 436.072C256.689 436.072 256.92 435.794 256.92 435.61L256.229 431.357L259.777 429.324C259.777 429.324 260.008 429.139 260.008 429L260.468 426.32L267.105 422.899L283.972 421.929L288.442 423.824C288.442 423.824 288.765 423.87 288.903 423.824L291.299 422.114C291.299 422.114 291.484 421.929 291.53 421.79L292.959 407.324C292.959 407.324 292.866 406.954 292.728 406.862L291.115 405.845L291.899 403.395L294.387 403.164L300.102 403.904C300.102 403.904 300.332 403.857 300.424 403.811L303.558 401.731L305.494 406.03C305.494 406.03 305.724 406.307 305.955 406.307H310.747C310.747 406.307 311.024 406.215 311.116 406.122L314.02 402.286L317.338 403.395C317.66 403.488 318.029 403.21 317.937 402.841L316.969 397.202L320.333 399.467C320.702 399.698 321.163 399.374 321.071 398.958L320.702 397.433L326.462 397.618L333.237 401.824L335.08 404.874C335.08 404.874 335.219 405.013 335.311 405.059L348.03 410.374C348.03 410.374 348.215 410.42 348.261 410.42L351.395 410.143C351.395 410.143 351.579 410.143 351.671 410.051L356.694 406.215C356.694 406.215 356.833 406.076 356.879 405.983L360.243 397.387L365.543 400.437C365.543 400.437 365.635 400.437 365.681 400.53L369.737 401.454C369.737 401.454 370.059 401.454 370.151 401.362L377.986 395.168L381.857 394.521L386.926 395.677L392.364 401.131L391.258 404.227C391.258 404.227 391.258 404.551 391.351 404.643L393.424 407.462L394.162 411.206C394.208 411.483 394.484 411.668 394.715 411.576L398.402 410.744L399.692 414.395C399.692 414.395 399.876 414.673 400.015 414.719L404.669 416.013L403.563 416.475C403.563 416.475 403.241 416.752 403.287 416.983L403.747 420.357C403.747 420.357 403.932 420.727 404.162 420.773L406.42 421.236L411.167 424.748C411.167 424.748 411.536 424.887 411.72 424.794L419.463 419.988L422.919 425.395L421.536 430.017C421.444 430.433 421.859 430.803 422.228 430.618L426.421 428.492L428.403 428.677L429.74 432.513C429.74 432.513 429.786 432.559 429.786 432.605L433.15 437.412C433.15 437.412 433.473 437.689 433.657 437.643L436.514 437.135C436.514 437.135 436.606 437.135 436.652 437.135L444.026 433.345L448.727 433.114C448.727 433.114 449.142 432.929 449.188 432.698L449.879 426.32L452.644 423.315C452.644 423.315 452.736 423.223 452.736 423.177L454.165 420.357L459.096 414.673L462.276 412.87L469.557 413.563C469.557 413.563 469.788 413.563 469.834 413.517L473.705 411.345C473.705 411.345 473.889 411.16 473.935 411.021L474.903 406.954C474.903 406.954 474.903 406.584 474.765 406.492L463.797 396.185L462.691 393.135L463.428 392.072L470.894 389.946L476.562 390.223C476.562 390.223 476.885 390.131 476.977 390.038L478.959 387.542L483.106 387.773L493.798 398.034C493.798 398.034 494.075 398.173 494.213 398.126L499.052 397.202C499.052 397.202 499.19 397.11 499.282 397.063L503.568 393.227C503.568 393.227 503.706 393.042 503.753 392.904L504.674 386.895L509.052 384.353C509.052 384.353 509.145 384.353 509.145 384.261L515.412 377.051L522.048 380.286C522.048 380.286 522.187 380.332 522.279 380.332L531.45 380.101L532.74 381.395C532.74 381.395 532.832 381.395 532.878 381.488L536.335 383.105L537.441 385.37C537.441 385.37 537.717 385.647 537.902 385.601L543.662 385.37C543.939 385.37 544.169 385.093 544.123 384.815L542.971 378.252L546.474 372.383C546.474 372.383 546.566 371.967 546.474 371.828L542.234 366.004L547.764 363.139C547.764 363.139 548.087 362.723 547.948 362.492L547.902 362.538Z" fill="#F2F2F1"/>
<path d="M323.199 201.25L331.449 193L329.074 190.625L323.199 196.5L320.865 194.167L318.49 196.542L323.199 201.25ZM324.949 215.667C320.476 211.861 317.136 208.327 314.928 205.063C312.719 201.799 311.615 198.778 311.615 196C311.615 191.833 312.956 188.514 315.636 186.042C318.317 183.57 321.421 182.333 324.949 182.333C328.476 182.333 331.581 183.57 334.261 186.042C336.942 188.514 338.282 191.833 338.282 196C338.282 198.778 337.178 201.799 334.969 205.063C332.761 208.327 329.421 211.861 324.949 215.667Z" fill="#5FD93D"/>
<path d="M443.199 197.25L451.449 189L449.074 186.625L443.199 192.5L440.865 190.167L438.49 192.542L443.199 197.25ZM444.949 211.667C440.476 207.861 437.136 204.327 434.928 201.063C432.719 197.799 431.615 194.778 431.615 192C431.615 187.833 432.956 184.514 435.636 182.042C438.317 179.57 441.421 178.333 444.949 178.333C448.476 178.333 451.581 179.57 454.261 182.042C456.942 184.514 458.282 187.833 458.282 192C458.282 194.778 457.178 197.799 454.969 201.063C452.761 204.327 449.421 207.861 444.949 211.667Z" fill="#5FD93D"/>
<path d="M258.199 346.25L266.449 338L264.074 335.625L258.199 341.5L255.865 339.167L253.49 341.542L258.199 346.25ZM259.949 360.667C255.476 356.861 252.136 353.327 249.928 350.063C247.719 346.799 246.615 343.778 246.615 341C246.615 336.833 247.956 333.514 250.636 331.042C253.317 328.57 256.421 327.333 259.949 327.333C263.476 327.333 266.581 328.57 269.261 331.042C271.942 333.514 273.282 336.833 273.282 341C273.282 343.778 272.178 346.799 269.969 350.063C267.761 353.327 264.421 356.861 259.949 360.667Z" fill="#5FD93D"/>
<path d="M401.199 319.25L409.449 311L407.074 308.625L401.199 314.5L398.865 312.167L396.49 314.542L401.199 319.25ZM402.949 333.667C398.476 329.861 395.136 326.327 392.928 323.063C390.719 319.799 389.615 316.778 389.615 314C389.615 309.833 390.956 306.514 393.636 304.042C396.317 301.57 399.421 300.333 402.949 300.333C406.476 300.333 409.581 301.57 412.261 304.042C414.942 306.514 416.282 309.833 416.282 314C416.282 316.778 415.178 319.799 412.969 323.063C410.761 326.327 407.421 329.861 402.949 333.667Z" fill="#5FD93D"/>
<path d="M151.199 168.25L159.449 160L157.074 157.625L151.199 163.5L148.865 161.167L146.49 163.542L151.199 168.25ZM152.949 182.667C148.476 178.861 145.136 175.327 142.928 172.063C140.719 168.799 139.615 165.778 139.615 163C139.615 158.833 140.956 155.514 143.636 153.042C146.317 150.57 149.421 149.333 152.949 149.333C156.476 149.333 159.581 150.57 162.261 153.042C164.942 155.514 166.282 158.833 166.282 163C166.282 165.778 165.178 168.799 162.969 172.063C160.761 175.327 157.421 178.861 152.949 182.667Z" fill="#5FD93D"/>
<path d="M164.199 131.25L172.449 123L170.074 120.625L164.199 126.5L161.865 124.167L159.49 126.542L164.199 131.25ZM165.949 145.667C161.476 141.861 158.136 138.327 155.928 135.063C153.719 131.799 152.615 128.778 152.615 126C152.615 121.833 153.956 118.514 156.636 116.042C159.317 113.57 162.421 112.333 165.949 112.333C169.476 112.333 172.581 113.57 175.261 116.042C177.942 118.514 179.282 121.833 179.282 126C179.282 128.778 178.178 131.799 175.969 135.063C173.761 138.327 170.421 141.861 165.949 145.667Z" fill="#5FD93D"/>
<path d="M148.199 221.25L156.449 213L154.074 210.625L148.199 216.5L145.865 214.167L143.49 216.542L148.199 221.25ZM149.949 235.667C145.476 231.861 142.136 228.327 139.928 225.063C137.719 221.799 136.615 218.778 136.615 216C136.615 211.833 137.956 208.514 140.636 206.042C143.317 203.57 146.421 202.333 149.949 202.333C153.476 202.333 156.581 203.57 159.261 206.042C161.942 208.514 163.282 211.833 163.282 216C163.282 218.778 162.178 221.799 159.969 225.063C157.761 228.327 154.421 231.861 149.949 235.667Z" fill="#5FD93D"/>
<path d="M218.199 174.25L226.449 166L224.074 163.625L218.199 169.5L215.865 167.167L213.49 169.542L218.199 174.25ZM219.949 188.667C215.476 184.861 212.136 181.327 209.928 178.063C207.719 174.799 206.615 171.778 206.615 169C206.615 164.833 207.956 161.514 210.636 159.042C213.317 156.57 216.421 155.333 219.949 155.333C223.476 155.333 226.581 156.57 229.261 159.042C231.942 161.514 233.282 164.833 233.282 169C233.282 171.778 232.178 174.799 229.969 178.063C227.761 181.327 224.421 184.861 219.949 188.667Z" fill="#5FD93D"/>
</svg>
