<svg width="80" height="80" viewBox="0 0 80 80" fill="none" xmlns="http://www.w3.org/2000/svg">
<path d="M36.6667 61.1108C43.4444 61.1108 49.213 58.7358 53.9725 53.9858C58.7314 49.2358 61.1108 43.4627 61.1108 36.6666C61.1108 29.8889 58.7314 24.1202 53.9725 19.3608C49.213 14.6019 43.4444 12.2225 36.6667 12.2225C29.8705 12.2225 24.0975 14.6019 19.3475 19.3608C14.5975 24.1202 12.2225 29.8889 12.2225 36.6666C12.2225 43.4627 14.5975 49.2358 19.3475 53.9858C24.0975 58.7358 29.8705 61.1108 36.6667 61.1108ZM36.6667 50C32.0555 50 27.9583 48.7639 24.375 46.2916C20.7917 43.8194 18.2222 40.6111 16.6667 36.6666C18.2222 32.7777 20.7917 29.5833 24.375 27.0833C27.9583 24.5833 32.0555 23.3333 36.6667 23.3333C41.2222 23.3333 45.2917 24.5833 48.875 27.0833C52.4583 29.5833 55.0555 32.7777 56.6667 36.6666C55.0555 40.6111 52.4583 43.8194 48.875 46.2916C45.2917 48.7639 41.2222 50 36.6667 50ZM36.6667 45C39.7222 45 42.5278 44.2639 45.0833 42.7916C47.6389 41.3194 49.6389 39.2777 51.0833 36.6666C49.6389 34.1111 47.6389 32.0833 45.0833 30.5833C42.5278 29.0833 39.7222 28.3333 36.6667 28.3333C33.5555 28.3333 30.7222 29.0833 28.1667 30.5833C25.6111 32.0833 23.6111 34.1111 22.1667 36.6666C23.6111 39.2777 25.6111 41.3194 28.1667 42.7916C30.7222 44.2639 33.5555 45 36.6667 45ZM36.6667 41.1108C37.8705 41.1108 38.9122 40.685 39.7917 39.8333C40.6711 38.9816 41.1108 37.9261 41.1108 36.6666C41.1108 35.4627 40.6711 34.4211 39.7917 33.5416C38.9122 32.6622 37.8705 32.2225 36.6667 32.2225C35.4072 32.2225 34.3517 32.6622 33.5 33.5416C32.6483 34.4211 32.2225 35.4627 32.2225 36.6666C32.2225 37.9261 32.6483 38.9816 33.5 39.8333C34.3517 40.685 35.4072 41.1108 36.6667 41.1108ZM36.6667 66.6666C32.5 66.6666 28.5972 65.875 24.9583 64.2916C21.3194 62.7083 18.1528 60.5694 15.4583 57.875C12.7639 55.1805 10.625 52.0139 9.04166 48.375C7.45832 44.7361 6.66666 40.8333 6.66666 36.6666C6.66666 32.5555 7.45832 28.6805 9.04166 25.0416C10.625 21.4027 12.7639 18.2222 15.4583 15.5C18.1528 12.7777 21.3194 10.625 24.9583 9.04163C28.5972 7.45829 32.5 6.66663 36.6667 6.66663C40.7778 6.66663 44.6528 7.45829 48.2917 9.04163C51.9305 10.625 55.1111 12.7777 57.8333 15.5C60.5556 18.2222 62.7083 21.4027 64.2917 25.0416C65.875 28.6805 66.6667 32.5555 66.6667 36.6666C66.6667 40.3333 66.0556 43.7869 64.8333 47.0275C63.6111 50.2686 61.9167 53.213 59.75 55.8608L73.2775 69.4441L69.3608 73.3333L55.7775 59.7775C53.1297 61.9441 50.1853 63.6341 46.9442 64.8475C43.7036 66.0602 40.2778 66.6666 36.6667 66.6666Z" fill="#5FD93D"/>
</svg>
