<svg width="80" height="80" viewBox="0 0 80 80" fill="none" xmlns="http://www.w3.org/2000/svg">
<path d="M26.6108 59.4441H53.3891V53.8891H26.6108V59.4441ZM26.6108 45.5558H53.3891V40H26.6108V45.5558ZM18.8891 73.3333C17.3891 73.3333 16.088 72.7825 14.9858 71.6808C13.8841 70.5786 13.3333 69.2775 13.3333 67.7775V12.2225C13.3333 10.7225 13.8841 9.42135 14.9858 8.31913C16.088 7.21746 17.3891 6.66663 18.8891 6.66663H47.8333L66.6666 25.5V67.7775C66.6666 69.2775 66.1158 70.5786 65.0141 71.6808C63.9119 72.7825 62.6108 73.3333 61.1108 73.3333H18.8891ZM45.0558 28.1108V12.2225H18.8891V67.7775H61.1108V28.1108H45.0558Z" fill="#5FD93D"/>
</svg>
