<svg width="80" height="80" viewBox="0 0 80 80" fill="none" xmlns="http://www.w3.org/2000/svg">
<path d="M53.3333 36.6666C54.2777 36.6666 55.0694 36.3472 55.7083 35.7083C56.3472 35.0694 56.6666 34.2777 56.6666 33.3333C56.6666 32.3888 56.3472 31.5972 55.7083 30.9583C55.0694 30.3194 54.2777 30 53.3333 30C52.3889 30 51.5972 30.3194 50.9583 30.9583C50.3194 31.5972 50 32.3888 50 33.3333C50 34.2777 50.3194 35.0694 50.9583 35.7083C51.5972 36.3472 52.3889 36.6666 53.3333 36.6666ZM26.6666 28.8891H43.3333V23.3333H26.6666V28.8891ZM15 70C13.1111 63.6666 11.25 57.3472 9.41663 51.0416C7.58329 44.7361 6.66663 38.2777 6.66663 31.6666C6.66663 26.5555 8.4444 22.2222 12 18.6666C15.5555 15.1111 19.8889 13.3333 25 13.3333H41.6666C43.2777 11.2222 45.2361 9.58329 47.5416 8.41663C49.8472 7.24996 52.3333 6.66663 55 6.66663C56.3889 6.66663 57.5694 7.15274 58.5416 8.12496C59.5139 9.09718 60 10.2777 60 11.6666C60 12 59.9583 12.3333 59.875 12.6666C59.7916 13 59.6944 13.3055 59.5833 13.5833C59.3611 14.1944 59.1527 14.8194 58.9583 15.4583C58.7639 16.0972 58.6111 16.75 58.5 17.4166L66.0833 25H73.3333V48.25L63.9166 51.3333L58.3333 70H40V63.3333H33.3333V70H15ZM19.1666 64.4441H27.7775V57.7775H45.5558V64.4441H54.1666L59.3891 47.0558L67.7775 44.1941V30.5558H63.7775L52.7775 19.5558C52.8147 18.2591 52.9583 17.0044 53.2083 15.7916C53.4583 14.5788 53.7408 13.3519 54.0558 12.1108C52.1114 12.6297 50.3058 13.4308 48.6391 14.5141C46.9725 15.5975 45.713 17.0558 44.8608 18.8891H25C21.4711 18.8891 18.4591 20.1363 15.9641 22.6308C13.4697 25.1258 12.2225 28.1377 12.2225 31.6666C12.2225 37.3022 13.0094 42.8083 14.5833 48.185C16.1572 53.5616 17.685 58.9813 19.1666 64.4441Z" fill="#5FD93D"/>
</svg>
