<svg width="80" height="80" viewBox="0 0 80 80" fill="none" xmlns="http://www.w3.org/2000/svg">
<path d="M51.8334 55.9441L55.8893 51.8891L42.9443 38.8891V22.6108H37.3893V41.1108L51.8334 55.9441ZM40.0001 73.3333C35.4262 73.3333 31.1115 72.4583 27.0559 70.7083C23.0004 68.9583 19.4631 66.5741 16.4442 63.5558C13.4259 60.5369 11.0417 56.9997 9.29175 52.9441C7.54175 48.8886 6.66675 44.5739 6.66675 40C6.66675 35.4261 7.54175 31.1113 9.29175 27.0558C11.0417 23.0002 13.4259 19.463 16.4442 16.4441C19.4631 13.4258 23.0004 11.0416 27.0559 9.29163C31.1115 7.54163 35.4262 6.66663 40.0001 6.66663C44.574 6.66663 48.8887 7.54163 52.9443 9.29163C56.9998 11.0416 60.537 13.4258 63.5559 16.4441C66.5743 19.463 68.9584 23.0002 70.7084 27.0558C72.4584 31.1113 73.3334 35.4261 73.3334 40C73.3334 44.5739 72.4584 48.8886 70.7084 52.9441C68.9584 56.9997 66.5743 60.5369 63.5559 63.5558C60.537 66.5741 56.9998 68.9583 52.9443 70.7083C48.8887 72.4583 44.574 73.3333 40.0001 73.3333ZM40.0001 67.7775C47.6484 67.7775 54.1901 65.06 59.6251 59.625C65.0601 54.19 67.7776 47.6483 67.7776 40C67.7776 32.3516 65.0601 25.81 59.6251 20.375C54.1901 14.94 47.6484 12.2225 40.0001 12.2225C32.3518 12.2225 25.8101 14.94 20.3751 20.375C14.9401 25.81 12.2226 32.3516 12.2226 40C12.2226 47.6483 14.9401 54.19 20.3751 59.625C25.8101 65.06 32.3518 67.7775 40.0001 67.7775Z" fill="#5FD93D"/>
</svg>
